{"title":"Poison.Ivy.The.Secret.Society.2008.STV.1080p.Bluray.x264-hV","uid":12159544,"size":8528379166,"categoryP":"video","categoryS":"hd___movies","magnet":"?xt=urn:btih:ce84b088c3c03ad14dbca28e1b3aea42bacb9987&amp;dn=Poison.Ivy.The.Secret.Society.2008.STV.1080p.Bluray.x264-hV&amp;tr=udp%3A%2F%2Ftracker.openbittorrent.com%3A80&amp;tr=udp%3A%2F%2Fopen.demonii.com%3A1337&amp;tr=udp%3A%2F%2Ftracker.coppersurfer.tk%3A6969&amp;tr=udp%3A%2F%2Fexodus.desync.com%3A6969","seeders":0,"leechers":0,"uploader":null,"files":3,"time":1437854819,"description":"Video\nID                                       : 1\nFormat                                   : AVC\nFormat/Info                              : Advanced Video Codec\nFormat profile                           : &lt;a class=&quot;__cf_email__&quot; href=&quot;/cdn-cgi/l/email-protection&quot; data-cfemail=&quot;df97b6b8b79f93ebf1ee&quot;&gt;[email&amp;#160;protected]&lt;/a&gt;&lt;script data-cfhash='f9e31' type=&quot;text/javascript&quot;&gt;\n/* &lt;![CDATA[ */!function(){try{var t=&quot;currentScript&quot;in document?document.currentScript:function(){for(var t=document.getElementsByTagName(&quot;script&quot;),e=t.length;e--;)if(t[e].getAttribute(&quot;data-cfhash&quot;))return t[e]}();if(t&amp;&amp;t.previousSibling){var e,r,n,i,c=t.previousSibling,a=c.getAttribute(&quot;data-cfemail&quot;);if(a){for(e=&quot;&quot;,r=parseInt(a.substr(0,2),16),n=2;a.length-n;n+=2)i=parseInt(a.substr(n,2),16)^r,e+=String.fromCharCode(i);e=document.createTextNode(e),c.parentNode.replaceChild(e,c)}t.parentNode.removeChild(t);}}catch(u){}}()/* ]]&gt; */&lt;/script&gt;\nFormat settings, CABAC                   : Yes\nFormat settings, ReFrames                : 4 frames\nCodec ID                                 : V_MPEG4/ISO/AVC\nDuration                                 : 1h 35mn\nBit rate                                 : 11.3 Mbps\nWidth                                    : 1 920 pixels\nHeight                                   : 1 080 pixels\nDisplay aspect ratio                     : 16:9\nFrame rate mode                          : Constant\nFrame rate                               : 23.976 fps\nColor space                              : YUV\nChroma subsampling                       : 4:2:0\nBit depth                                : 8 bits\nScan type                                : Progressive\nBits/(Pixel*Frame)                       : 0.228\nStream size                              : 7.36 GiB (93%)\nWriting library                          : x264 core 80 r1376 3feaec2\nEncoding settings                        : cabac=1 / ref=4 / deblock=1:0:0 / analyse=0x3:0x133 / me=umh / subme=7 / psy=1 / psy_rd=1.0:0.0 / mixed_ref=1 / me_range=16 / chroma_me=1 / trellis=1 / 8x8dct=1 / cqm=0 / deadzone=21,11 / fast_pskip=0 / chroma_qp_offset=-2 / threads=12 / sliced_threads=0 / nr=0 / decimate=1 / mbaff=0 / constrained_intra=0 / bframes=3 / b_pyramid=2 / b_adapt=1 / b_bias=0 / direct=1 / wpredb=1 / wpredp=2 / keyint=250 / keyint_min=25 / scenecut=40 / rc=2pass / mbtree=0 / bitrate=11312 / ratetol=1.0 / qcomp=0.60 / qpmin=10 / qpmax=51 / qpstep=4 / cplxblur=20.0 / qblur=0.5 / ip_ratio=1.40 / pb_ratio=1.30 / aq=1:1.00\nLanguage                                 : English\nDefault                                  : Yes\nForced                                   : No\n\nAudio\nID                                       : 2\nFormat                                   : AC-3\nFormat/Info                              : Audio Coding 3\nMode extension                           : CM (complete main)\nFormat settings, Endianness              : Big\nCodec ID                                 : A_AC3\nDuration                                 : 1h 35mn\nBit rate mode                            : Constant\nBit rate                                 : 640 Kbps\nChannel(s)                               : 6 channels\nChannel positions                        : Front: L C R, Side: L R, LFE\nSampling rate                            : 48.0 KHz\nCompression mode                         : Lossy\nStream size                              : 436 MiB (5%)\nDefault                                  : Yes\nForced                                   : No","torrent":{"xt":"urn:btih:ce84b088c3c03ad14dbca28e1b3aea42bacb9987","amp;dn":"Poison.Ivy.The.Secret.Society.2008.STV.1080p.Bluray.x264-hV","amp;tr":["udp%3A%2F%2Ftracker.openbittorrent.com%3A80","udp%3A%2F%2Fopen.demonii.com%3A1337","udp%3A%2F%2Ftracker.coppersurfer.tk%3A6969","udp%3A%2F%2Fexodus.desync.com%3A6969"],"infoHash":"ce84b088c3c03ad14dbca28e1b3aea42bacb9987","infoHashBuffer":{"type":"Buffer","data":[206,132,176,136,195,192,58,209,77,188,162,142,27,58,234,66,186,203,153,135]},"announce":[],"urlList":[]}}